<?xml version="1.0" encoding="UTF-8"?>
<svg version="1.1" xmlns="http://www.w3.org/2000/svg" width="512" height="512">
<path d="M0 0 C3.04453577 2.50703498 6.13836545 4.93988819 9.26000977 7.34985352 C15.48781266 12.15986125 21.36019946 17.22223746 27.10546875 22.59765625 C29.33849633 24.68050946 31.59665822 26.71350871 33.90234375 28.71484375 C47.23264749 40.29332112 60.18356012 52.2987031 72.68945312 64.76171875 C74.40181257 66.46431559 76.12460974 68.15588455 77.84765625 69.84765625 C87.67613161 79.58253627 96.46308463 90.08622735 104.08984375 101.65234375 C104.69892578 102.57394287 104.69892578 102.57394287 105.3203125 103.51416016 C114.38724348 117.55851862 119.27889397 131.77320817 116.125 148.5625 C113.20178286 159.28932684 106.95927577 167.76086918 97.77734375 174.08984375 C95.4729219 175.1860617 93.14797887 176.13817052 90.77734375 177.08984375 C90.72199463 177.74057861 90.66664551 178.39131348 90.60961914 179.06176758 C90.35680682 182.00896474 90.09839049 184.95564435 89.83984375 187.90234375 C89.75283203 188.92650391 89.66582031 189.95066406 89.57617188 191.00585938 C89.48916016 191.98876953 89.40214844 192.97167969 89.3125 193.984375 C89.19467163 195.34332886 89.19467163 195.34332886 89.07446289 196.72973633 C88.77734375 199.08984375 88.77734375 199.08984375 87.77734375 202.08984375 C88.3496875 202.3321875 88.92203125 202.57453125 89.51171875 202.82421875 C103.34533488 210.55196293 110.03335299 229.48240257 114.1796875 243.87353516 C123.43734428 278.20401238 119.11524421 314.00693868 115.34671021 348.80725098 C115.095663 351.12965332 114.84853777 353.45248358 114.60568237 355.77575684 C110.79870924 391.8393442 110.79870924 391.8393442 102.46484375 406.15234375 C102.07876953 406.84440918 101.69269531 407.53647461 101.29492188 408.24951172 C93.01090035 422.73299126 82.43658812 432.18738992 66.36468506 437.14186096 C60.78045238 438.50356409 55.22606622 438.34573992 49.50878906 438.30053711 C48.30024513 438.29892893 47.0917012 438.29732075 45.84653473 438.29566383 C42.54185228 438.28907263 39.23745415 438.27341948 35.9328413 438.25349545 C32.41034793 438.23432114 28.88782564 438.22652893 25.36529541 438.21702576 C17.22846464 438.19250139 9.09178751 438.14892282 0.95505905 438.10210705 C-1.85904605 438.08626007 -4.67315743 438.07184848 -7.48727083 438.05756366 C-25.09977781 437.96812355 -42.71189592 437.8431282 -60.32404947 437.70100534 C-65.11282755 437.66258535 -69.90162053 437.62684247 -74.69042969 437.5925293 C-104.35008317 437.37957086 -134.00754212 437.09316176 -163.6640625 436.60546875 C-164.89085472 436.58597734 -166.11764694 436.56648594 -167.38161469 436.54640388 C-214.81666196 435.78148689 -247.35492866 431.57388246 -282.22265625 397.08984375 C-282.98449219 396.19394531 -283.74632812 395.29804688 -284.53125 394.375 C-288.6560964 389.57370809 -288.6560964 389.57370809 -294.46484375 387.45703125 C-296.86529553 387.33622077 -299.2685528 387.26277086 -301.671875 387.234375 C-315.66797928 386.66467659 -328.34551761 377.94530247 -337.68359375 368.109375 C-352.90095398 350.01242198 -358.58234676 327.33047974 -357.22265625 304.08984375 C-354.33141073 271.69252979 -339.72802215 227.77777782 -314.22265625 206.08984375 C-312.84992554 205.29006104 -312.84992554 205.29006104 -311.44946289 204.47412109 C-305.36414519 200.86542608 -305.36414519 200.86542608 -302.24072266 194.76879883 C-301.97704976 191.51534702 -301.90008169 188.36823746 -302.06323242 185.10839844 C-302.16014326 183.09011432 -302.16582977 181.08672827 -302.15820312 179.06640625 C-302.35341967 170.74270513 -303.58266343 166.13915329 -309.22265625 160.08984375 C-310.8671875 157.26171875 -310.8671875 157.26171875 -312.03515625 154.83984375 C-312.43347656 154.0303125 -312.83179688 153.22078125 -313.2421875 152.38671875 C-317.32042884 142.83291035 -316.39156616 129.68413282 -312.6640625 120.1640625 C-304.73379873 103.25046471 -293.92203281 88.73175216 -281.22265625 75.08984375 C-280.11423946 73.80182239 -279.0099312 72.51025174 -277.91015625 71.21484375 C-271.18182088 63.50072902 -263.80561747 56.29760248 -256.015625 49.6640625 C-254.16835996 48.04217185 -252.44508911 46.3432417 -250.72265625 44.58984375 C-247.73393288 41.5538945 -244.60559146 38.74475716 -241.37890625 35.96484375 C-239.02302667 33.91625281 -236.71758165 31.81781373 -234.41015625 29.71484375 C-230.13955474 25.85961989 -225.73491956 22.2140186 -221.26171875 18.59765625 C-217.75206752 15.70151732 -214.33266574 12.71282537 -210.91015625 9.71484375 C-203.87446775 3.57685501 -196.64074592 -2.242583 -189.22265625 -7.91015625 C-188.3092749 -8.61108398 -188.3092749 -8.61108398 -187.37744141 -9.32617188 C-114.27638757 -65.29268706 -70.11789255 -57.833563 0 0 Z " fill="#010101" transform="translate(375.22265625,63.91015625)"/>
<path d="M0 0 C5.00073329 0.00750846 10.00138697 0.0048495 15.00211728 -0.00360346 C50.71170715 -0.06242326 86.34978386 0.35654323 122.02521527 2.12760687 C123.77680577 2.21431095 125.52850015 2.29894012 127.28028882 2.38154364 C129.76416721 2.49895803 132.24765268 2.62259552 134.73112118 2.74834967 C135.45501632 2.78204279 136.17891146 2.81573591 136.92474282 2.85045004 C147.43903461 3.40979052 156.16096432 6.59964103 163.5834161 14.26104498 C171.8680202 24.26340716 174.89839863 35.85709194 177.64200985 48.25713873 C177.81780575 48.98263922 177.99360165 49.70813971 178.1747247 50.45562506 C178.79835298 54.19446233 178.86367188 57.90233919 178.91544735 61.68291998 C178.92783947 62.52240683 178.9402316 63.36189367 178.95299923 64.22681952 C178.98573678 67.00780034 179.00432987 69.78849554 179.01700985 72.56963873 C179.02157193 73.52755316 179.026134 74.48546759 179.03083432 75.47240973 C179.05761015 91.3844811 178.03994065 107.06649658 176.32950985 122.88213873 C176.22281979 123.87581457 176.11612973 124.86949041 176.00620663 125.89327765 C174.93314898 135.71009596 173.69045933 145.49528365 172.11857235 155.24541998 C172.00531109 155.96303503 171.89204983 156.68065008 171.77535641 157.42001104 C170.09882127 167.33804932 165.83054892 178.84967741 158.03263485 185.66338873 C152.79159886 189.29578991 148.1239601 189.39680853 141.96696103 189.36797857 C141.06129454 189.36761728 140.15562806 189.36725599 139.22251713 189.36688375 C136.14747345 189.364084 133.07250464 189.35368867 129.9974786 189.34307623 C127.77304776 189.33876575 125.54861636 189.33473546 123.32418454 189.33096075 C116.43807795 189.31680244 109.55203138 189.29228678 102.6659652 189.26507139 C100.62457687 189.2570704 98.58318757 189.24938348 96.54179776 189.24177313 C78.47063426 189.17395321 60.3996716 189.08243697 42.32873356 188.96959066 C34.38052341 188.92003941 26.43232514 188.87334107 18.48405087 188.83526373 C-15.88174708 188.66900652 -50.23474882 188.32543499 -84.5896455 187.40518284 C-86.91708251 187.34368237 -89.2445774 187.28512254 -91.5721072 187.22725058 C-95.20665282 187.13601251 -98.84081145 187.03520601 -102.47488177 186.92670822 C-104.42394277 186.87012512 -106.37322293 186.82125221 -108.32250011 186.77268362 C-135.17904218 185.9108055 -154.43606718 169.95047269 -172.37361515 151.14385748 C-174.082073 149.2158548 -175.7259307 147.25027327 -177.35799015 145.25713873 C-178.23722649 144.20424296 -179.11752409 143.15223292 -179.99861515 142.10088873 C-182.46051208 139.16018225 -184.91148815 136.21066226 -187.35799015 133.25713873 C-190.04651119 134.2809133 -192.26535531 135.19023579 -194.60799015 136.88213873 C-199.15410236 139.15519484 -203.63288044 139.10338352 -208.4712714 137.60088873 C-218.33011364 133.15962387 -223.44840616 125.04925465 -227.35799015 115.25713873 C-235.81055143 88.04683869 -224.25164265 60.13970842 -211.85799015 36.19463873 C-208.35159947 29.62372572 -204.40363957 23.7690186 -199.35799015 18.25713873 C-198.76115421 17.59198248 -198.16431827 16.92682623 -197.5493964 16.24151373 C-192.25690909 10.63076994 -187.74474545 7.11698024 -179.85799015 6.63213873 C-174.95786323 6.83379004 -172.21195392 7.93147039 -168.7837714 11.42510748 C-165.33069567 15.86207327 -163.4888265 20.71512344 -161.74861515 26.01885748 C-161.35464542 27.21514776 -161.35464542 27.21514776 -160.95271671 28.43560553 C-160.65832706 29.33726446 -160.65832706 29.33726446 -160.35799015 30.25713873 C-159.36541202 29.48370123 -158.3728339 28.71026373 -157.35017765 27.91338873 C-148.68595282 21.24133453 -140.03100173 15.37160462 -130.35799015 10.25713873 C-129.56521671 9.82659185 -128.77244327 9.39604498 -127.9556464 8.95245123 C-114.20870638 1.72277452 -97.15526491 1.88462632 -81.9087714 1.14776373 C-81.06043546 1.10589186 -80.21209953 1.06401999 -79.33805645 1.02087927 C-52.91354527 -0.2380734 -26.44761446 -0.04428203 0 0 Z " fill="#020202" transform="translate(281.3579901456833,278.74286127090454)"/>
<path d="M0 0 C19.02515109 11.91878373 36.87545081 25.81337408 54.18896484 40.06738281 C55.76017845 41.35847099 57.33856141 42.64082334 58.91796875 43.921875 C69.3959696 52.42086837 79.623519 61.17626628 89.48999023 70.37866211 C92.24475294 72.94754909 95.02454568 75.46386672 97.8984375 77.8984375 C102.44688291 81.81917813 106.60246038 86.13772337 110.82128906 90.40527344 C113.83924128 93.44595365 116.86046473 96.39603143 120.1484375 99.1484375 C132.62717897 109.79128737 152.65766035 130.27345312 154.3359375 147.3359375 C154.28564867 150.79329434 153.98775162 151.48637092 151.8359375 154.4609375 C148.5116978 156.84571815 147.06441961 157.7648188 142.9609375 157.5234375 C139.9828764 155.87033498 137.51729893 153.76132966 134.9609375 151.5234375 C133.57928728 150.31442689 132.19761207 149.10544484 130.81591797 147.89648438 C130.09435516 147.26512573 129.37279236 146.63376709 128.62936401 145.98327637 C127.80349289 145.26065613 127.80349289 145.26065613 126.9609375 144.5234375 C126.96981995 145.22119797 126.97870239 145.91895844 126.987854 146.63786316 C127.06859245 153.27071512 127.12919887 159.90342644 127.16818619 166.5366621 C127.18890515 169.94547477 127.2169274 173.35387549 127.26269531 176.76245117 C127.31518498 180.6970496 127.3340123 184.63149159 127.3515625 188.56640625 C127.37220764 189.76798874 127.39285278 190.96957123 127.41412354 192.20756531 C127.41628089 200.49227994 126.14880287 207.83456074 122.9609375 215.5234375 C122.3009375 216.1834375 121.6409375 216.8434375 120.9609375 217.5234375 C117.66378957 217.19372271 116.3382536 216.9007536 113.9609375 214.5234375 C113.8569044 211.94649728 113.87632932 209.48524946 113.98779297 206.9152832 C114.04048417 205.28584477 114.09278265 203.6563936 114.14474487 202.02693176 C114.19116434 200.72620193 114.19116434 200.72620193 114.23852158 199.39919472 C114.39140228 194.79251543 114.47382421 190.18438851 114.56640625 185.57617188 C114.68591235 179.71737857 114.82614694 173.8621302 115.05810547 168.0065918 C117.10728848 145.93856305 117.10728848 145.93856305 110.57421875 125.75244141 C107.4129553 122.43123405 103.97984912 119.98653135 99.99153137 117.75230408 C96.64075111 115.72449245 93.98904918 113.00669092 91.2109375 110.2734375 C90.16355367 109.30231247 89.11321377 108.33435556 88.05859375 107.37109375 C85.96084467 105.44291327 83.86459559 103.51312846 81.76953125 101.58203125 C76.23306513 96.48473529 70.66612001 91.43208493 64.9609375 86.5234375 C64.22302979 85.88801025 64.22302979 85.88801025 63.47021484 85.23974609 C60.51392817 82.69543678 57.55278544 80.15698709 54.5859375 77.625 C52.32468324 75.69480675 50.07442559 73.75340519 47.8359375 71.796875 C26.62074288 53.36232918 2.75342632 37.70751067 -22.0390625 24.5234375 C-22.69261719 24.09804687 -23.34617187 23.67265625 -24.01953125 23.234375 C-28.36839936 21.70343884 -32.34325534 23.22154437 -36.40625 24.984375 C-46.27133611 30.36732845 -55.71140728 36.25728707 -65.0390625 42.5234375 C-65.73741211 42.99217285 -66.43576172 43.4609082 -67.15527344 43.94384766 C-83.74741482 55.12517184 -99.29660138 67.36954882 -114.4453125 80.43359375 C-116.76690655 82.43490309 -119.09941137 84.4217801 -121.4453125 86.39453125 C-130.24089968 93.81272492 -138.61775314 101.62318147 -146.95605469 109.54931641 C-150.15397355 112.58006792 -153.37701854 115.58356961 -156.6015625 118.5859375 C-162.00300505 123.62162336 -167.39923605 128.6628186 -172.7890625 133.7109375 C-173.46912354 134.34717041 -174.14918457 134.98340332 -174.84985352 135.63891602 C-175.48463623 136.23373779 -176.11941895 136.82855957 -176.7734375 137.44140625 C-177.33256836 137.96500732 -177.89169922 138.4886084 -178.46777344 139.02807617 C-178.98629883 139.52154541 -179.50482422 140.01501465 -180.0390625 140.5234375 C-180.5870752 141.0198877 -181.13508789 141.51633789 -181.69970703 142.02783203 C-183.86904276 144.45024374 -183.79296168 147.03633866 -184.1640625 150.2109375 C-184.31101562 151.39042969 -184.45796875 152.56992188 -184.609375 153.78515625 C-185.5881883 163.73851386 -186.06975247 173.7190732 -186.28515625 183.71484375 C-186.30187378 184.48414719 -186.31859131 185.25345062 -186.33581543 186.04606628 C-186.40172632 189.19509892 -186.4644506 192.34410259 -186.51586914 195.4934082 C-186.55571821 197.8382995 -186.60711399 200.18271874 -186.66015625 202.52734375 C-186.6685704 203.22847794 -186.67698456 203.92961212 -186.68565369 204.6519928 C-186.80138338 209.30131521 -187.61328432 213.14199512 -189.0390625 217.5234375 C-191.2890625 217.5859375 -191.2890625 217.5859375 -194.0390625 216.5234375 C-199.50690481 209.25459 -198.52653921 199.99453099 -198.3515625 191.3984375 C-198.34003828 189.97657567 -198.33026292 188.55469855 -198.32226562 187.1328125 C-198.11014431 162.55144585 -198.11014431 162.55144585 -196.0390625 155.5234375 C-196.6990625 155.8534375 -197.3590625 156.1834375 -198.0390625 156.5234375 C-205.03775872 157.21183385 -205.03775872 157.21183385 -209.0390625 154.4609375 C-211.6856074 150.57382468 -211.85276938 149.18375873 -211.0390625 144.5234375 C-208.38780218 137.59095916 -204.48361304 131.4357544 -200.2265625 125.3984375 C-199.84902832 124.8614624 -199.47149414 124.3244873 -199.08251953 123.77124023 C-191.73411353 113.68492628 -182.65143092 104.97517155 -173.83666992 96.19067383 C-171.97263006 94.33201642 -170.11402738 92.46804136 -168.25585938 90.60351562 C-162.88075595 85.22540752 -157.51852685 79.89309127 -151.72338867 74.96264648 C-148.97488251 72.61412585 -146.36265394 70.12138592 -143.7265625 67.6484375 C-138.88037051 63.13481349 -133.88919204 58.88500736 -128.72265625 54.73828125 C-125.88667709 52.39766963 -123.18053405 49.9525354 -120.4765625 47.4609375 C-115.50213929 42.89930046 -110.37417407 38.65454416 -105.0390625 34.5234375 C-104.45447266 34.06630371 -103.86988281 33.60916992 -103.26757812 33.13818359 C-34.28511929 -20.7609014 -34.28511929 -20.7609014 0 0 Z " fill="#F7F7F7" transform="translate(304.0390625,53.4765625)"/>
<path d="M0 0 C5.00073329 0.00750846 10.00138697 0.0048495 15.00211728 -0.00360346 C50.71170715 -0.06242326 86.34978386 0.35654323 122.02521527 2.12760687 C123.77680577 2.21431095 125.52850015 2.29894012 127.28028882 2.38154364 C129.76416721 2.49895803 132.24765268 2.62259552 134.73112118 2.74834967 C135.45501632 2.78204279 136.17891146 2.81573591 136.92474282 2.85045004 C147.43903461 3.40979052 156.16096432 6.59964103 163.5834161 14.26104498 C171.8680202 24.26340716 174.89839863 35.85709194 177.64200985 48.25713873 C177.81780575 48.98263922 177.99360165 49.70813971 178.1747247 50.45562506 C178.79835298 54.19446233 178.86367188 57.90233919 178.91544735 61.68291998 C178.92783947 62.52240683 178.9402316 63.36189367 178.95299923 64.22681952 C178.98573678 67.00780034 179.00432987 69.78849554 179.01700985 72.56963873 C179.02157193 73.52755316 179.026134 74.48546759 179.03083432 75.47240973 C179.05761015 91.3844811 178.03994065 107.06649658 176.32950985 122.88213873 C176.22281979 123.87581457 176.11612973 124.86949041 176.00620663 125.89327765 C174.93314898 135.71009596 173.69045933 145.49528365 172.11857235 155.24541998 C172.00531109 155.96303503 171.89204983 156.68065008 171.77535641 157.42001104 C170.09882127 167.33804932 165.83054892 178.84967741 158.03263485 185.66338873 C152.79159886 189.29578991 148.1239601 189.39680853 141.96696103 189.36797857 C141.06129454 189.36761728 140.15562806 189.36725599 139.22251713 189.36688375 C136.14747345 189.364084 133.07250464 189.35368867 129.9974786 189.34307623 C127.77304776 189.33876575 125.54861636 189.33473546 123.32418454 189.33096075 C116.43807795 189.31680244 109.55203138 189.29228678 102.6659652 189.26507139 C100.62457687 189.2570704 98.58318757 189.24938348 96.54179776 189.24177313 C78.47063426 189.17395321 60.3996716 189.08243697 42.32873356 188.96959066 C34.38052341 188.92003941 26.43232514 188.87334107 18.48405087 188.83526373 C-15.88174708 188.66900652 -50.23474882 188.32543499 -84.5896455 187.40518284 C-86.91708251 187.34368237 -89.2445774 187.28512254 -91.5721072 187.22725058 C-95.20665282 187.13601251 -98.84081145 187.03520601 -102.47488177 186.92670822 C-104.42394277 186.87012512 -106.37322293 186.82125221 -108.32250011 186.77268362 C-135.17904218 185.9108055 -154.43606718 169.95047269 -172.37361515 151.14385748 C-174.082073 149.2158548 -175.7259307 147.25027327 -177.35799015 145.25713873 C-178.23722649 144.20424296 -179.11752409 143.15223292 -179.99861515 142.10088873 C-182.46051208 139.16018225 -184.91148815 136.21066226 -187.35799015 133.25713873 C-190.04651119 134.2809133 -192.26535531 135.19023579 -194.60799015 136.88213873 C-199.15410236 139.15519484 -203.63288044 139.10338352 -208.4712714 137.60088873 C-218.33011364 133.15962387 -223.44840616 125.04925465 -227.35799015 115.25713873 C-235.81055143 88.04683869 -224.25164265 60.13970842 -211.85799015 36.19463873 C-208.35159947 29.62372572 -204.40363957 23.7690186 -199.35799015 18.25713873 C-198.76115421 17.59198248 -198.16431827 16.92682623 -197.5493964 16.24151373 C-192.25690909 10.63076994 -187.74474545 7.11698024 -179.85799015 6.63213873 C-174.95786323 6.83379004 -172.21195392 7.93147039 -168.7837714 11.42510748 C-165.33069567 15.86207327 -163.4888265 20.71512344 -161.74861515 26.01885748 C-161.35464542 27.21514776 -161.35464542 27.21514776 -160.95271671 28.43560553 C-160.65832706 29.33726446 -160.65832706 29.33726446 -160.35799015 30.25713873 C-159.36541202 29.48370123 -158.3728339 28.71026373 -157.35017765 27.91338873 C-148.68595282 21.24133453 -140.03100173 15.37160462 -130.35799015 10.25713873 C-129.56521671 9.82659185 -128.77244327 9.39604498 -127.9556464 8.95245123 C-114.20870638 1.72277452 -97.15526491 1.88462632 -81.9087714 1.14776373 C-81.06043546 1.10589186 -80.21209953 1.06401999 -79.33805645 1.02087927 C-52.91354527 -0.2380734 -26.44761446 -0.04428203 0 0 Z M-57.8228339 8.71416998 C-58.7013772 8.73361921 -59.5799205 8.75306845 -60.48508632 8.77310705 C-95.27598997 7.89027031 -95.27598997 7.89027031 -127.67049015 17.13213873 C-128.37415714 17.51926031 -129.07782413 17.90638189 -129.80281436 18.30523443 C-137.16486171 22.48646404 -143.9949501 27.47397933 -150.55598819 32.81475592 C-151.79169621 33.80385807 -153.06173464 34.7511091 -154.35725772 35.66045904 C-157.98895795 38.30828802 -157.98895795 38.30828802 -159.90681827 42.22955084 C-160.04568142 44.40733752 -159.97437435 46.45800769 -159.79549015 48.63213873 C-159.76390811 49.36819342 -159.73232608 50.1042481 -159.69978702 50.86260748 C-159.61797228 52.66253185 -159.49242709 54.46037828 -159.35799015 56.25713873 C-158.52396671 56.27131842 -157.68994327 56.2854981 -156.8306464 56.30010748 C-147.26853771 56.7053744 -140.57572967 58.47522834 -133.98299015 65.63213873 C-127.96248637 73.47551726 -127.40940579 80.48781017 -128.35799015 90.25713873 C-130.27572976 98.94124263 -135.48997953 106.14277618 -142.9712714 110.92901373 C-149.00044166 113.96491842 -154.65269405 115.66033971 -161.35799015 114.25713873 C-169.71376879 111.24948203 -176.00669419 107.19996723 -180.39827335 99.41241217 C-183.10408979 93.33585466 -182.32020511 84.71329074 -181.35799015 78.25713873 C-179.66705273 74.21489779 -177.37038099 71.40328438 -174.35799015 68.25713873 C-169.83566689 63.32448885 -166.92049015 60.11929999 -166.92049015 53.19463873 C-167.03129883 51.54607688 -167.16475754 49.89808232 -167.35799015 48.25713873 C-175.76795821 55.17200136 -183.65991353 62.88831908 -190.65486515 71.24151373 C-191.9116589 72.72891184 -193.22267662 74.17088543 -194.56111515 75.58526373 C-198.29185893 79.73343339 -200.89135492 82.92628626 -201.17049015 88.63213873 C-199.08246977 114.60418168 -170.2146224 142.49609652 -151.56697452 158.8254981 C-147.62725365 162.15380874 -143.55216033 165.25789955 -139.35799015 168.25713873 C-138.40795108 168.94807623 -137.45791202 169.63901373 -136.4790839 170.35088873 C-122.92083465 179.25143622 -107.48719929 179.50023959 -91.78767765 179.82354498 C-90.12320415 179.86226415 -88.45873486 179.90116438 -86.79426944 179.94022894 C-65.79088104 180.41301074 -44.78236961 180.60676156 -23.77484119 180.78976965 C-20.31118702 180.82004787 -16.84754331 180.85136358 -13.38389957 180.88281012 C21.52474946 181.19625001 56.43282694 181.36327223 91.34287655 181.38007498 C94.69039284 181.38213006 98.03790371 181.38588407 101.38541806 181.38998175 C106.63412486 181.39582562 111.88280199 181.39599925 117.1315099 181.39152098 C119.04644324 181.39049177 120.96137819 181.39102276 122.87631047 181.39327955 C138.8785155 182.51589644 138.8785155 182.51589644 153.45450985 178.31963873 C154.53732235 176.80370123 154.53732235 176.80370123 155.64200985 175.25713873 C156.14345517 174.63452154 156.64490048 174.01190435 157.1615411 173.37041998 C160.84053617 168.24131007 162.25235079 163.19404955 163.1224786 157.01885748 C163.30512013 155.79036833 163.30512013 155.79036833 163.49145138 154.53706121 C176.03751694 87.46627243 176.03751694 87.46627243 160.7865411 23.38213873 C156.11756866 17.16888333 151.45267229 12.81836101 143.64200985 11.25713873 C141.63587517 11.08751795 139.62569106 10.96375393 137.6146661 10.86822271 C136.37226666 10.80825613 135.12986722 10.74828955 133.8498193 10.68650579 C132.46807207 10.62490605 131.08630122 10.5638342 129.70450985 10.50323248 C128.98834311 10.47096878 128.27217637 10.43870508 127.5343076 10.4054637 C121.90415832 10.15288962 116.27328561 9.92055096 110.64200985 9.69463873 C109.80041192 9.66054403 108.95881398 9.62644934 108.09171307 9.59132147 C76.54541774 8.32309388 45.02426259 7.97648434 13.45450985 8.00713873 C11.89180356 8.00783928 11.89180356 8.00783928 10.29752743 8.00855398 C-12.41381846 8.01936727 -35.11698016 8.19820255 -57.8228339 8.71416998 Z " fill="#F8F8F8" transform="translate(281.3579901456833,278.74286127090454)"/>
<path d="M0 0 C1.9375 0.8125 1.9375 0.8125 3.9375 2.8125 C4.43740219 9.33900083 3.09558971 13.92194184 0.65670776 20.01228333 C-0.84539538 23.76445938 -2.3435177 27.51813806 -3.83349609 31.27514648 C-8.80427562 43.78813788 -13.9620646 56.21651446 -19.1875 68.625 C-25.4728106 83.53915937 -25.4728106 83.53915937 -31.6171875 98.51171875 C-32.09397949 99.68951904 -32.57077148 100.86731934 -33.06201172 102.08081055 C-34.17713729 104.64064373 -34.17713729 104.64064373 -34.0625 106.8125 C-33.38767578 105.83023438 -33.38767578 105.83023438 -32.69921875 104.828125 C-14.48431384 78.98413166 -14.48431384 78.98413166 -2.0625 73.8125 C2.2444986 73.26433654 4.21797721 73.33792114 7.875 75.75 C10.66406387 79.89133727 10.44906983 82.93892235 9.9375 87.8125 C9.16401722 91.06016897 8.05780385 94.13099227 6.875 97.25 C6.56208008 98.11036865 6.24916016 98.9707373 5.92675781 99.85717773 C3.49634627 106.48617984 0.90361897 113.05266083 -1.70166016 119.61450195 C-3.91256393 125.24601331 -5.69796073 130.91249213 -7.0625 136.8125 C-6.7325 137.1425 -6.4025 137.4725 -6.0625 137.8125 C-4.8438154 136.08603016 -3.62513854 134.35955486 -2.40649414 132.63305664 C-1.32768265 131.10480921 -0.24874009 129.5766543 0.83032227 128.04858398 C3.53961071 124.21156744 6.24731951 120.37347414 8.94921875 116.53125 C11.93633068 112.2852802 14.93348904 108.04652913 17.9375 103.8125 C18.49147461 103.03100586 19.04544922 102.24951172 19.61621094 101.44433594 C21.3223699 99.04253693 23.03521089 96.64564301 24.75 94.25 C25.2648999 93.52433838 25.7797998 92.79867676 26.31030273 92.05102539 C39.16697654 74.16141655 39.16697654 74.16141655 47.9765625 72.40625 C52.89159257 72.1785266 56.7238906 73.39357609 60.9375 75.8125 C66.25756295 80.87573232 69.16042462 85.26196011 69.36914062 92.75048828 C69.41972366 112.70971 61.43757349 132.05787422 47.9375 146.8125 C47.35097656 147.47894531 46.76445312 148.14539063 46.16015625 148.83203125 C40.91330049 154.4834065 35.64904938 157.92853992 27.8125 158.375 C24.32681534 158.23021002 22.18932921 157.73040448 19.4375 155.5625 C15.07271184 150.76123302 14.58327938 146.94838045 14.3125 140.5625 C14.27382813 139.81742188 14.23515625 139.07234375 14.1953125 138.3046875 C14.10144892 136.4743476 14.01840282 134.64345857 13.9375 132.8125 C13.01130859 134.18921875 13.01130859 134.18921875 12.06640625 135.59375 C0.95502348 151.80373826 0.95502348 151.80373826 -7.0625 155.8125 C-11.41819776 156.56348237 -13.65644722 156.7586067 -17.3671875 154.26171875 C-21.5727496 150.16840474 -23.61465619 146.72602374 -23.875 140.8125 C-22.98784896 127.47410626 -17.59878161 114.81728934 -12.0625 102.8125 C-16.13269581 106.64674243 -19.3657846 110.73311667 -22.5625 115.3125 C-23.07731934 116.045896 -23.59213867 116.77929199 -24.12255859 117.53491211 C-30.48814365 126.71674561 -36.2575342 136.27104671 -42.0625 145.8125 C-43.92954797 148.8799672 -45.80496271 151.94201964 -47.6875 155 C-48.0892041 155.66523682 -48.4909082 156.33047363 -48.90478516 157.01586914 C-50.771188 160.04284836 -52.05580031 161.80803354 -55.0625 163.8125 C-61.31306205 163.58926564 -61.31306205 163.58926564 -63.78320312 161.02905273 C-66.55422098 156.22789412 -64.53558635 150.58006106 -63.17578125 145.49951172 C-62.03151624 141.72849757 -60.81423604 137.9862693 -59.5625 134.25 C-59.10475599 132.86435881 -58.64732273 131.47861494 -58.19018555 130.09277344 C-57.04269227 126.62895296 -55.87880382 123.17092545 -54.70697021 119.715271 C-54.11839606 117.97753075 -53.53476752 116.23811743 -52.95166016 114.49853516 C-43.4674126 86.37984024 -30.91374939 59.30754201 -18.65185547 32.31298828 C-17.55920143 29.90646391 -16.46925737 27.49889265 -15.38330078 25.08935547 C-13.74331364 21.45145251 -12.09128265 17.81915316 -10.4375 14.1875 C-9.94032471 13.08398193 -9.44314941 11.98046387 -8.9309082 10.84350586 C-8.46644287 9.8303833 -8.00197754 8.81726074 -7.5234375 7.7734375 C-7.11915527 6.88446777 -6.71487305 5.99549805 -6.29833984 5.07958984 C-3.36270148 -0.30570013 -3.36270148 -0.30570013 0 0 Z " fill="#FAFAFA" transform="translate(263.0625,101.1875)"/>
<path d="M0 0 C7.99134161 6.04956959 15.82177279 12.26410347 23.53515625 18.6640625 C25.28503313 20.08088124 27.03503674 21.49754348 28.78515625 22.9140625 C39.23869273 31.47643213 49.36737389 40.39536427 59.2421875 49.6171875 C61.01572426 51.27248848 62.804589 52.90268221 64.62084961 54.51123047 C71.8146682 60.88677723 78.68602013 67.56133057 85.50268555 74.33642578 C86.8097332 75.63197258 88.1212295 76.92304749 89.43725586 78.20947266 C101.06117458 89.57359846 113.28915098 102.35212554 119.53515625 117.6640625 C119.53515625 118.9840625 119.53515625 120.3040625 119.53515625 121.6640625 C114.56943535 121.25248924 112.56548374 119.08990964 109.22265625 115.5390625 C106.09780678 112.28035067 102.986784 109.08193338 99.53515625 106.1640625 C95.2593503 102.51911317 91.3631309 98.52403654 87.44140625 94.5078125 C84.63483891 91.6972628 81.64688979 89.11962812 78.64550781 86.52050781 C75.06339605 83.36937664 71.61916341 80.07399175 68.16015625 76.7890625 C62.02717238 70.99151258 55.86151227 65.25097431 49.53515625 59.6640625 C48.91253906 59.11234375 48.28992188 58.560625 47.6484375 57.9921875 C45.61953199 56.20572982 43.5785931 54.43388662 41.53515625 52.6640625 C41.04563477 52.23754395 40.55611328 51.81102539 40.05175781 51.37158203 C32.01919141 44.37849598 23.84932781 37.6194799 15.4140625 31.11767578 C13.42562102 29.57932072 11.44907312 28.02642254 9.47265625 26.47265625 C-6.19557474 14.22611846 -22.9514891 4.04500246 -40.0078125 -6.1484375 C-40.9155542 -6.69113281 -41.8232959 -7.23382813 -42.75854492 -7.79296875 C-48.44144781 -11.03301803 -52.78742306 -13.30266369 -59.46484375 -12.3359375 C-62.01579655 -11.42860997 -64.11178376 -10.53653019 -66.46484375 -9.2734375 C-67.1307251 -8.92764648 -67.79660645 -8.58185547 -68.48266602 -8.22558594 C-94.91936079 5.87319277 -119.12454322 23.77925231 -141.80859375 43.24609375 C-143.51169953 44.70417724 -145.22193649 46.15353102 -146.93359375 47.6015625 C-153.92509153 53.53174705 -160.7418109 59.61403527 -167.44921875 65.86328125 C-170.09426789 68.32737967 -172.77131394 70.75291888 -175.46484375 73.1640625 C-180.9219866 78.05879449 -186.30912171 83.02707884 -191.68359375 88.01220703 C-192.90422672 89.14417012 -194.12561946 90.27531431 -195.34765625 91.40576172 C-201.62509428 97.21461569 -207.8862732 103.02090224 -213.90234375 109.1015625 C-216.81287132 112.03142912 -219.73505707 114.93308737 -222.77734375 117.7265625 C-223.37160156 118.27441406 -223.96585937 118.82226562 -224.578125 119.38671875 C-226.84193523 120.91936046 -228.77889265 121.28960116 -231.46484375 121.6640625 C-230.87794982 117.20366864 -229.08252312 113.74076139 -226.83984375 109.9140625 C-226.30025024 108.9854541 -226.30025024 108.9854541 -225.74975586 108.03808594 C-217.99743875 94.93951976 -207.12485125 84.14800328 -196.39868164 73.4675293 C-194.8967745 71.97101325 -193.40033313 70.4691795 -191.90429688 68.96679688 C-187.17213816 64.23137094 -182.38785664 59.60994172 -177.29956055 55.25366211 C-174.15787019 52.53169991 -171.16874176 49.64811813 -168.15234375 46.7890625 C-162.92535715 41.86912477 -157.60621513 37.21031568 -151.99609375 32.73046875 C-149.46346222 30.66293468 -147.05753215 28.50292909 -144.65234375 26.2890625 C-139.03942334 21.17586156 -133.07055685 16.56624385 -127.07226562 11.92041016 C-124.92597774 10.24288928 -122.82229842 8.51499521 -120.71484375 6.7890625 C-73.34869855 -31.13481192 -49.27553968 -36.9915829 0 0 Z " fill="#040404" transform="translate(331.46484375,81.3359375)"/>
<path d="M0 0 C5.30538198 3.77271608 8.6897502 8.88262103 10.8125 15 C13.86913182 42.74342883 6.58100052 72.3738486 -8.1875 96 C-10.6015625 98.7890625 -10.6015625 98.7890625 -12.8125 100.625 C-13.91464844 101.57246094 -13.91464844 101.57246094 -15.0390625 102.5390625 C-19.20568665 105.37236692 -24.25743665 105.91992124 -29.1875 105 C-35.50079396 101.90053865 -38.69468223 97.40481396 -41.1875 91 C-41.5282959 90.24734863 -41.8690918 89.49469727 -42.22021484 88.71923828 C-43.26354119 85.78623251 -43.44571482 83.56838716 -43.453125 80.46484375 C-43.45570313 79.40716797 -43.45828125 78.34949219 -43.4609375 77.25976562 C-43.44933594 75.61524414 -43.44933594 75.61524414 -43.4375 73.9375 C-43.44523438 72.86822266 -43.45296875 71.79894531 -43.4609375 70.69726562 C-43.40705916 48.4051012 -36.4356611 22.65742763 -22.1875 5 C-15.65899836 -1.01487211 -8.43269942 -2.64555276 0 0 Z " fill="#FCFCFC" transform="translate(238.1875,323)"/>
<path d="M0 0 C4.44082601 2.3058135 6.92418328 4.46328751 9 9 C9.42040359 12.15302691 9.37710382 15.26138896 9.3125 18.4375 C9.30049561 19.3663501 9.28849121 20.2952002 9.27612305 21.25219727 C8.96607132 36.94609189 7.08944511 52.33764984 4.5625 67.8125 C4.35729736 69.082146 4.15209473 70.35179199 3.94067383 71.65991211 C1.04966238 88.66566229 1.04966238 88.66566229 -3.25 93.5625 C-6.88591093 95.4630898 -8.95337618 95.7226114 -13 95 C-17.4844278 91.00301001 -18.63370912 88.10484805 -19 82 C-23.04288041 81.41289053 -26.18721823 81.45074303 -30 83 C-32.81886477 86.34670001 -34.4097263 90.38956935 -36.1484375 94.36328125 C-37.76698764 97.90749567 -39.67159926 99.87367016 -43 102 C-45.5625 102.5625 -45.5625 102.5625 -48 102 C-50.57989552 99.90819282 -51.81933775 98.25071611 -52.30102539 94.91601562 C-52.44102464 87.75626336 -50.67894655 82.01347027 -48.125 75.375 C-47.72079834 74.29250977 -47.31659668 73.21001953 -46.90014648 72.09472656 C-19.08916166 -1.59076347 -19.08916166 -1.59076347 0 0 Z " fill="#FBFBFB" transform="translate(344,321)"/>
<path d="M0 0 C3.14521735 2.58928305 4.89982846 4.50829113 5.32421875 8.5703125 C5.88871696 26.67767806 -5.25300403 40.99575321 -16.94921875 53.953125 C-25.16731251 61.91748688 -25.16731251 61.91748688 -30.07421875 62.015625 C-31.02296875 61.995 -31.97171875 61.974375 -32.94921875 61.953125 C-33.62109375 60.25 -33.62109375 60.25 -33.94921875 57.953125 C-32.90234375 55.71875 -32.90234375 55.71875 -31.19921875 53.203125 C-30.5546875 52.23503906 -29.91015625 51.26695312 -29.24609375 50.26953125 C-27.60908244 47.88862144 -25.94508183 45.52742559 -24.27734375 43.16796875 C-14.02515248 29.07872025 -14.02515248 29.07872025 -7.94921875 12.953125 C-27.12435836 20.63166542 -40.96488623 39.73469231 -48.94921875 58.203125 C-50.19658913 62.88076392 -50.21521006 67.14557839 -49.94921875 71.953125 C-49.24667969 72.21738281 -48.54414063 72.48164063 -47.8203125 72.75390625 C-40.3013534 75.89447828 -30.63318209 80.21370623 -26.94921875 87.953125 C-25.97749468 92.79632114 -26.32395674 96.59385975 -28.38671875 101.078125 C-37.32969643 111.11170972 -47.74273068 118.04100672 -61.40234375 119.26171875 C-69.03546593 119.52086796 -74.16532082 119.30070341 -80.3125 114.55859375 C-81.94921875 112.953125 -81.94921875 112.953125 -83.94921875 109.953125 C-83.76171875 106.390625 -83.76171875 106.390625 -82.94921875 102.953125 C-79.94921875 100.953125 -79.94921875 100.953125 -77.82421875 101.265625 C-75.94921875 101.953125 -75.94921875 101.953125 -74.94921875 102.953125 C-63.93230286 103.77068202 -53.36521087 103.51400789 -44.32421875 96.328125 C-41.93604259 94.19029582 -41.93604259 94.19029582 -40.94921875 91.953125 C-42.12484375 91.64375 -42.12484375 91.64375 -43.32421875 91.328125 C-52.14940668 87.98063992 -59.15112471 83.21343173 -64.08203125 75.0859375 C-67.06067726 67.76007839 -64.91718444 59.12005571 -62.26953125 52.01953125 C-53.35815929 31.32300169 -37.11382874 9.34099161 -15.94921875 -0.046875 C-10.98668771 -1.57839761 -4.71458074 -2.53207944 0 0 Z " fill="#FAFAFA" transform="translate(218.94921875,144.046875)"/>
<path d="M0 0 C2.5 1 2.5 1 3.8125 3.6875 C5.55389006 7.10578419 6.24650708 7.66810679 9.3125 9.625 C15.27870734 13.82670979 18.52719926 20.35300569 20.0078125 27.42578125 C20.449842 35.72120149 16.32668704 43.51413929 11.5 50 C10.91476562 50.78761719 10.32953125 51.57523438 9.7265625 52.38671875 C3.16461866 60.08836863 -7.3824049 67.5441149 -17.45288086 69.60400391 C-20.78701846 70.76185026 -20.78701846 70.76185026 -22.23510742 74.20874023 C-22.71542394 75.56726694 -23.17086295 76.93476095 -23.60546875 78.30859375 C-23.85621658 79.03111832 -24.10696442 79.75364288 -24.36531067 80.49806213 C-25.16184804 82.80424748 -25.92606469 85.11951287 -26.6875 87.4375 C-27.46467299 89.74977606 -28.24851306 92.05943686 -29.04182434 94.3662262 C-29.53326138 95.80058503 -30.0145628 97.2384667 -30.48442078 98.68003845 C-32.62484577 105.02404106 -32.62484577 105.02404106 -35.5 107 C-39.39504791 107.49573337 -41.59493717 107.58016848 -44.9375 105.4375 C-47.11959512 102.03343161 -46.80520284 100.03898306 -46.5 96 C-45.63801742 92.54272062 -44.46243487 89.22339387 -43.25 85.875 C-42.89719971 84.88363037 -42.54439941 83.89226074 -42.1809082 82.87084961 C-34.19756518 60.8260718 -24.98854823 38.97709647 -14.5 18 C-20.66127863 21.76258421 -20.66127863 21.76258421 -26.5 26 C-30.375 24.125 -30.375 24.125 -31.5 23 C-31.93669519 19.24442133 -31.66255127 17.30634662 -29.875 13.9375 C-24.92433083 7.81430392 -20.87891663 5.32578333 -13.3125 3.8125 C-8.85623668 2.86306946 -4.19601552 0 0 0 Z " fill="#FAFAFA" transform="translate(368.5,160)"/>
<path d="M0 0 C3.64974502 0.77654149 4.68088363 1.67482133 6.9375 4.625 C8.60332321 15.57380306 6.13638265 26.6558791 3.75 37.3125 C3.42893025 38.8043386 3.10912013 40.29644882 2.79052734 41.78881836 C0.82528611 50.92335056 -1.24184459 60.04039596 -3.55151367 69.09448242 C-4.85014958 74.26716727 -5.56753658 79.31204161 -6.0625 84.625 C-4.97710937 84.72296875 -3.89171875 84.8209375 -2.7734375 84.921875 C-1.32803435 85.07204676 0.11727353 85.22313732 1.5625 85.375 C2.63177734 85.4678125 2.63177734 85.4678125 3.72265625 85.5625 C8.7172551 86.11236409 11.96359148 87.33477467 15.9375 90.625 C17.18572542 94.07597617 17.23159601 95.80153117 16 99.25 C11.98058684 103.87841515 5.9154785 106.32020945 -0.16552734 106.78613281 C-2.58965818 106.8317211 -5.01297753 106.86021633 -7.4375 106.875 C-8.27539062 106.895625 -9.11328125 106.91625 -9.9765625 106.9375 C-15.84837683 106.97442965 -20.23318197 106.26614486 -24.70703125 102.08984375 C-29.67535703 95.59280234 -29.85438405 90.69284195 -29.0625 82.625 C-27.16216035 69.85086766 -24.23686316 57.26357012 -20.37890625 44.9453125 C-19.06656631 40.73667113 -17.94890705 36.48483356 -16.82958984 32.22143555 C-8.80670476 1.79728669 -8.80670476 1.79728669 0 0 Z " fill="#FAFAFA" transform="translate(380.0625,325.375)"/>
<path d="M0 0 C2.86744915 2.27709197 4.75675311 4.64189454 6.09375 8.015625 C6.3215261 12.32818591 5.79048367 15.95762201 3.40625 19.578125 C0.42327631 21.43240594 -1.4432446 21.30420878 -4.90625 21.015625 C-6.22625 21.015625 -7.54625 21.015625 -8.90625 21.015625 C-14.26974995 31.14372292 -18.6393756 41.01797912 -21.90625 52.015625 C-22.20273437 52.94632812 -22.49921875 53.87703125 -22.8046875 54.8359375 C-25.19051016 62.7493097 -26.03276056 70.82537696 -26.90625 79.015625 C-25.42125 78.520625 -25.42125 78.520625 -23.90625 78.015625 C-17.67303445 77.57039532 -17.67303445 77.57039532 -14.96875 79.140625 C-13.28759306 82.10737255 -13.33978836 83.61685518 -13.90625 87.015625 C-17.39697225 93.92509585 -21.47102617 98.53721706 -28.90625 101.015625 C-34.2547682 101.63276171 -37.27612503 100.83694588 -41.3984375 97.57421875 C-46.91611242 91.8707154 -47.26534227 83.05497275 -47.28686523 75.56030273 C-46.74048602 52.17033013 -36.09676656 20.74319483 -19.80078125 3.76171875 C-14.55000853 -1.07765322 -6.72936073 -3.47499776 0 0 Z " fill="#FAFAFA" transform="translate(296.90625,323.984375)"/>
<path d="M0 0 C3.3125 1.0625 3.3125 1.0625 5.25 2.625 C8.60494887 10.3216474 4.90599847 18.84938112 2.625 26.375 C1.8865569 28.88238183 1.14958135 31.39019631 0.4140625 33.8984375 C0.05344727 35.12014648 -0.30716797 36.34185547 -0.67871094 37.60058594 C-2.65881711 44.39581959 -4.45297655 51.23771947 -6.18798828 58.09912109 C-6.65374874 59.9298374 -7.13675678 61.75614168 -7.62109375 63.58203125 C-9.68678802 71.75585498 -10.35054056 79.66175258 -10.6875 88.0625 C-9.73875 88.51625 -8.79 88.97 -7.8125 89.4375 C-4.6875 91.0625 -4.6875 91.0625 -2.6875 93.0625 C-2.22422818 97.15473437 -2.2390025 99.34170044 -4.4375 102.875 C-8.10659603 106.4421767 -10.96503304 107.36610691 -16.0625 107.4375 C-21.0785239 107.33063398 -23.90877014 106.56473743 -27.6875 103.0625 C-33.76037754 95.02004056 -33.30117582 86.71937091 -32.6875 77.0625 C-31.99819599 72.29819285 -30.86724571 67.72514409 -29.6875 63.0625 C-29.40543701 61.88042969 -29.12337402 60.69835937 -28.83276367 59.48046875 C-26.6080919 50.25642269 -23.97779224 41.24594529 -20.96069336 32.25073242 C-20.24328166 30.104905 -19.54223119 27.95415523 -18.84179688 25.80273438 C-10.37927946 0.17591999 -10.37927946 0.17591999 0 0 Z " fill="#FAFAFA" transform="translate(188.6875,318.9375)"/>
<path d="M0 0 C5.50285607 4.83584321 7.35510034 12.76867735 8.73828125 19.69921875 C8.60211433 25.17896457 4.59759693 28.17976135 0.87695312 31.77734375 C-0.10209527 32.6857257 -1.08191782 33.59327395 -2.0625 34.5 C-3.95139188 36.29980539 -5.83815071 38.10185236 -7.72265625 39.90625 C-8.62870605 40.76758545 -9.53475586 41.6289209 -10.46826172 42.51635742 C-13.85814834 45.84184601 -16.94408801 49.37014573 -20 53 C-23.75 57.1875 -23.75 57.1875 -25.421875 59.04296875 C-30.47745682 65.31239076 -31.07934808 71.05659911 -30.34912109 78.90332031 C-28.69522572 88.83594513 -22.50381324 98.32351886 -17.28515625 106.7421875 C-16 109 -16 109 -16 111 C-21.96002855 114.93361884 -21.96002855 114.93361884 -25.9375 115.1875 C-34.27469774 111.95470904 -38.14495617 105.68496934 -41.87109375 97.8671875 C-49.15749392 79.36124381 -41.28756604 56.35482705 -34 39 C-15.47100538 -1.89232132 -15.47100538 -1.89232132 0 0 Z " fill="#040404" transform="translate(104,294)"/>
<path d="M0 0 C5.1989787 0.09048855 8.72690842 1.13503389 12.4765625 4.9375 C17.4610257 10.6070316 18.29086154 14.14568512 18.21484375 21.78125 C17.47700264 28.14244322 14.54626201 32.51003899 10.08984375 36.9765625 C4.28156837 41.39134506 -2.20130735 40.72923578 -9.1875 40.25 C-10.22763033 36.81240615 -9.87665126 34.96469217 -8.796875 31.54296875 C-6.41890478 22.59509364 -5.93422919 13.12353062 -5.43359375 3.91796875 C-5.04835244 -0.25853627 -3.85468511 0.07748111 0 0 Z " fill="#040404" transform="translate(127.1875,343.75)"/>
<path d="M0 0 C2.46800047 1.15173355 4.04783565 2.04783565 6 4 C8.35098639 18.76200756 0.89133329 34.32474923 -7.43676758 46.05615234 C-12.31075999 52.74775237 -12.31075999 52.74775237 -15.2734375 53.83203125 C-15.84320313 53.88746094 -16.41296875 53.94289062 -17 54 C-18.20128454 36.88169526 -9.54343276 15.61562464 -1 1 C-0.67 0.67 -0.34 0.34 0 0 Z " fill="#060606" transform="translate(310,188)"/>
<path d="M0 0 C0.33 0 0.66 0 1 0 C2.24976502 19.13529108 -2.59493047 37.4670347 -10 55 C-10.33 55 -10.66 55 -11 55 C-11.73110708 36.15368428 -7.35777886 18.68654332 -1 1 C-0.67 0.67 -0.34 0.34 0 0 Z " fill="#131313" transform="translate(227,343)"/>
<path d="M0 0 C3 1 3 1 5 4 C5.6835144 9.76104998 4.99398482 13.18650766 1.7109375 17.96875 C-1.46636759 21.74089303 -5.19338121 24.88172404 -9 28 C-10.28589593 24.14231222 -9.43749924 22.95293026 -7.91015625 19.23828125 C-7.22856445 17.56088867 -7.22856445 17.56088867 -6.53320312 15.84960938 C-6.04787109 14.68236328 -5.56253906 13.51511719 -5.0625 12.3125 C-4.58103516 11.13365234 -4.09957031 9.95480469 -3.60351562 8.74023438 C-2.41074224 5.82325392 -1.20927701 2.9101686 0 0 Z " fill="#0E0E0E" transform="translate(367,181)"/>
<path d="M0 0 C3.12942457 -0.45796457 5.23225198 -0.50559016 7.921875 1.265625 C12.64163669 5.28327338 12.64163669 5.28327338 14 8 C14.06996014 9.70702735 14.08440154 11.41668003 14.0625 13.125 C14.05347656 14.03507812 14.04445313 14.94515625 14.03515625 15.8828125 C14.02355469 16.58148438 14.01195312 17.28015625 14 18 C12.68 18.33 11.36 18.66 10 19 C9.70867187 18.34773438 9.41734375 17.69546875 9.1171875 17.0234375 C6.416115 11.26454707 3.76912427 7.21457494 -1 3 C-0.67 2.01 -0.34 1.02 0 0 Z " fill="#F4F4F4" transform="translate(421,307)"/>
<path d="M0 0 C1.3096875 -0.00515625 2.619375 -0.0103125 3.96875 -0.015625 C7.15242072 0.22385466 8.86102529 0.55351625 11.5 2.25 C11.5 3.24 11.5 4.23 11.5 5.25 C4.16258031 7.5979743 -2.84393782 7.44355213 -10.5 7.25 C-10.83 5.6 -11.16 3.95 -11.5 2.25 C-7.75380451 -0.15826853 -4.37270385 -0.01721537 0 0 Z " fill="#EEEEEE" transform="translate(192.5,442.75)"/>
<path d="M0 0 C7.62951555 -0.34855655 13.92444501 -0.0017506 21 3 C20.67 4.32 20.34 5.64 20 7 C16.87507749 7.05791844 13.75029234 7.09356746 10.625 7.125 C9.73554688 7.14175781 8.84609375 7.15851563 7.9296875 7.17578125 C7.07890625 7.18222656 6.228125 7.18867188 5.3515625 7.1953125 C4.17327881 7.21102295 4.17327881 7.21102295 2.97119141 7.22705078 C1 7 1 7 -1 5 C-0.625 2.375 -0.625 2.375 0 0 Z " fill="#F3F3F3" transform="translate(230,442)"/>
<path d="M0 0 C0.66 0 1.32 0 2 0 C2.29211698 8.86088167 1.44796872 17.26047454 0 26 C-3.89270423 22.23286688 -5.17643986 20.36735626 -5.375 14.9375 C-5.35901832 8.88044256 -3.39392998 4.90907729 0 0 Z " fill="#171717" transform="translate(112,352)"/>
<path d="M0 0 C1.89551022 -0.05441656 3.7914792 -0.09298035 5.6875 -0.125 C6.74324219 -0.14820313 7.79898437 -0.17140625 8.88671875 -0.1953125 C12.02251859 0.00141271 14.17645373 0.66942346 17 2 C17 3.32 17 4.64 17 6 C14.16612485 7.41693757 11.71970627 7.1699013 8.5625 7.1875 C7.40878906 7.20167969 6.25507813 7.21585937 5.06640625 7.23046875 C2 7 2 7 -1 5 C-0.67 3.35 -0.34 1.7 0 0 Z " fill="#ECECEC" transform="translate(277,443)"/>
<path d="M0 0 C1.56041016 -0.00773437 1.56041016 -0.00773437 3.15234375 -0.015625 C5.99348495 0.24370064 7.64957634 0.78480298 10.0625 2.25 C9.7325 3.24 9.4025 4.23 9.0625 5.25 C3.42198428 7.53020848 -1.91751986 7.46802745 -7.9375 7.25 C-8.2675 5.6 -8.5975 3.95 -8.9375 2.25 C-5.48666005 -0.05055997 -4.06574272 -0.02010256 0 0 Z " fill="#E9E9E9" transform="translate(336.9375,441.75)"/>
<path d="M0 0 C-0.1875 3.3125 -0.1875 3.3125 -1 7 C-3.74643061 9.43255282 -5.48375648 9.94837565 -9.125 10.3125 C-12 10 -12 10 -15 8 C-14.80078125 6.140625 -14.80078125 6.140625 -14 4 C-11.85546875 2.734375 -11.85546875 2.734375 -9.1875 1.75 C-7.87845703 1.24726563 -7.87845703 1.24726563 -6.54296875 0.734375 C-4 0 -4 0 0 0 Z " fill="#EDEDED" transform="translate(428,439)"/>
<path d="M0 0 C-1.45398922 3.80149136 -3.19679402 4.99364507 -6.8125 6.75 C-8.09060547 7.39195312 -8.09060547 7.39195312 -9.39453125 8.046875 C-12.12150319 9.04444794 -14.12220136 9.18599776 -17 9 C-17 7.68 -17 6.36 -17 5 C-11.56183752 -0.28710241 -7.19778868 -0.11996314 0 0 Z " fill="#F4F4F4" transform="translate(191,302)"/>
<path d="M0 0 C0.74362793 0.01047363 1.48725586 0.02094727 2.25341797 0.03173828 C3.46191406 0.04140625 3.46191406 0.04140625 4.69482422 0.05126953 C5.95746094 0.07640625 5.95746094 0.07640625 7.24560547 0.10205078 C8.51984375 0.11558594 8.51984375 0.11558594 9.81982422 0.12939453 C11.9202043 0.15299431 14.02043991 0.18886595 16.12060547 0.22705078 C16.12060547 1.54705078 16.12060547 2.86705078 16.12060547 4.22705078 C12.95988998 5.80740853 9.58786043 5.45280424 6.12060547 5.47705078 C5.01458984 5.50798828 5.01458984 5.50798828 3.88623047 5.53955078 C1.74560547 5.55517578 1.74560547 5.55517578 -1.87939453 5.22705078 C-2.53939453 4.23705078 -3.19939453 3.24705078 -3.87939453 2.22705078 C-1.87939453 0.22705078 -1.87939453 0.22705078 0 0 Z " fill="#ECECEC" transform="translate(254.87939453125,297.77294921875)"/>
<path d="M0 0 C2.8257202 0.08310942 4.54544382 0.59547694 6.66796875 2.484375 C11 7.30002969 11 7.30002969 11 12 C7.55269416 12.39397781 6.24386886 12.1644697 3.3125 10.1875 C1 8 1 8 -1 5 C-0.625 2.3125 -0.625 2.3125 0 0 Z " fill="#EFEFEF" transform="translate(120,405)"/>
<path d="M0 0 C4.17582188 -0.33406575 6.58871916 -0.20564042 10.375 1.6875 C13 4 13 4 13.875 6.75 C13.936875 7.86375 13.936875 7.86375 14 9 C8.36215871 9.5500333 5.4756159 8.24701545 1 5 C0.0625 2.25 0.0625 2.25 0 0 Z " fill="#EEEEEE" transform="translate(146,434)"/>
<path d="M0 0 C2.0625 0.4375 2.0625 0.4375 4 1 C4.05418326 3.08304538 4.09287551 5.16649768 4.125 7.25 C4.14820313 8.41015625 4.17140625 9.5703125 4.1953125 10.765625 C4.0103949 13.82786046 3.60823023 15.44202751 2 18 C1.01 17.67 0.02 17.34 -1 17 C-1.02684679 14.35409986 -1.04676357 11.70846904 -1.0625 9.0625 C-1.07087891 8.30775391 -1.07925781 7.55300781 -1.08789062 6.77539062 C-1.09652441 4.85005687 -1.05224333 2.92464419 -1 1 C-0.67 0.67 -0.34 0.34 0 0 Z " fill="#E9E9E9" transform="translate(433,348)"/>
<path d="M0 0 C0.99 0.33 1.98 0.66 3 1 C3 5.29 3 9.58 3 14 C1.68 14.33 0.36 14.66 -1 15 C-3.45416273 11.3187559 -3.59384154 8.27738037 -3 4 C-1.5 1.5 -1.5 1.5 0 0 Z " fill="#ECECEC" transform="translate(431,381)"/>
<path d="M0 0 C3.8513331 0.02758835 6.78988195 0.34210371 10.25 2.1875 C9.92 3.1775 9.59 4.1675 9.25 5.1875 C4.3 5.1875 -0.65 5.1875 -5.75 5.1875 C-5.75 -0.39080826 -5.06868922 0.0374903 0 0 Z " fill="#EAEAEA" transform="translate(343.75,299.8125)"/>
<path d="M0 0 C0.33 0 0.66 0 1 0 C0.39700836 7.23589973 -1.1150587 13.99370876 -3 21 C-4.65 21 -6.3 21 -8 21 C-7.32512263 16.18080529 -5.42034091 12.08116134 -3.4375 7.6875 C-2.9434668 6.57665039 -2.9434668 6.57665039 -2.43945312 5.44335938 C-1.63082877 3.62688438 -0.81602884 1.81316069 0 0 Z " fill="#101010" transform="translate(330,363)"/>
<path d="M0 0 C-0.39276782 2.41345489 -0.74223485 3.73045526 -2.453125 5.51953125 C-7.34787743 9.04162485 -7.34787743 9.04162485 -10.9375 8.8125 C-11.618125 8.544375 -12.29875 8.27625 -13 8 C-12.875 6.25 -12.875 6.25 -12 4 C-7.95345317 0.61219335 -5.26424467 -0.50135664 0 0 Z " fill="#EEEEEE" transform="translate(156,317)"/>
<path d="M0 0 C1.18851563 0.00902344 2.37703125 0.01804687 3.6015625 0.02734375 C4.51679688 0.03894531 5.43203125 0.05054688 6.375 0.0625 C6.375 1.0525 6.375 2.0425 6.375 3.0625 C1.51448404 5.65477518 -3.27771133 5.24939553 -8.625 5.0625 C-8.625 3.7425 -8.625 2.4225 -8.625 1.0625 C-5.74084117 -0.37957941 -3.20778472 -0.03144887 0 0 Z " fill="#F5F5F5" transform="translate(216.625,299.9375)"/>
<path d="M0 0 C0.99 0.33 1.98 0.66 3 1 C3 5.29 3 9.58 3 14 C1.68 14 0.36 14 -1 14 C-2.73849628 12.26150372 -2.17216296 9.9213363 -2.1875 7.5625 C-2.20167969 6.57378906 -2.21585937 5.58507812 -2.23046875 4.56640625 C-2 2 -2 2 0 0 Z " fill="#EEEEEE" transform="translate(430,414)"/>
<path d="M0 0 C1.16402344 0.00773437 1.16402344 0.00773437 2.3515625 0.015625 C3.12242187 0.01046875 3.89328125 0.0053125 4.6875 0 C7.1757986 0.28874455 8.81890448 1.02423271 10.9765625 2.265625 C9.9865625 3.750625 9.9865625 3.750625 8.9765625 5.265625 C6.4453125 5.6640625 6.4453125 5.6640625 3.4765625 5.640625 C2.496875 5.64835937 1.5171875 5.65609375 0.5078125 5.6640625 C-0.3275 5.53257812 -1.1628125 5.40109375 -2.0234375 5.265625 C-2.6834375 4.275625 -3.3434375 3.285625 -4.0234375 2.265625 C-2.0234375 0.265625 -2.0234375 0.265625 0 0 Z " fill="#EEEEEE" transform="translate(382.0234375,303.734375)"/>
<path d="M0 0 C0.94875 0.04125 1.8975 0.0825 2.875 0.125 C3.535 1.445 4.195 2.765 4.875 4.125 C1.74001708 5.98276765 -0.49971432 6.32640476 -4.125 6.125 C-4.75 4.25 -4.75 4.25 -5.125 2.125 C-3.125 0.125 -3.125 0.125 0 0 Z " fill="#ECECEC" transform="translate(375.125,441.875)"/>
<path d="M0 0 C3.3 0 6.6 0 10 0 C10.33 0.99 10.66 1.98 11 3 C8.59454362 4.20272819 7.05003047 4.10071472 4.375 4.0625 C3.14910156 4.04896484 3.14910156 4.04896484 1.8984375 4.03515625 C0.95871094 4.01775391 0.95871094 4.01775391 0 4 C0 2.68 0 1.36 0 0 Z " fill="#F1F1F1" transform="translate(296,300)"/>
<path d="M0 0 C1 2 1 2 0.375 4.5 C-1 7 -1 7 -3.625 8.3125 C-4.40875 8.539375 -5.1925 8.76625 -6 9 C-4.47291037 5.56404834 -2.40072955 2.88087546 0 0 Z " fill="#1C1C1C" transform="translate(251,202)"/>
<path d="M0 0 C0.33 0 0.66 0 1 0 C0.67 2.97 0.34 5.94 0 9 C-0.99 9 -1.98 9 -3 9 C-2.44271087 5.65626525 -1.64826111 2.96687001 0 0 Z " fill="#424242" transform="translate(330,363)"/>
</svg>
